<?xml version="1.0" encoding="UTF-8"?>
<svg width="800px" height="500px" viewBox="0 0 800 500" version="1.1" xmlns="http://www.w3.org/2000/svg">
    <g stroke="none" stroke-width="1" fill="none" fill-rule="evenodd">
        <rect fill="#F8FAFC" x="0" y="0" width="800" height="500" rx="10"></rect>
        <rect fill="#FFFFFF" x="20" y="20" width="760" height="460" rx="8"></rect>
        <rect fill="#1E293B" x="20" y="20" width="760" height="40" rx="8 8 0 0"></rect>
        <circle fill="#FF5F57" cx="50" cy="40" r="6"></circle>
        <circle fill="#FEBC2E" cx="70" cy="40" r="6"></circle>
        <circle fill="#28C840" cx="90" cy="40" r="6"></circle>
        
        <!-- Left Panel -->
        <rect fill="#F8FAFC" x="40" y="80" width="200" height="380" rx="4"></rect>
        <rect fill="#E2E8F0" x="60" y="100" width="160" height="30" rx="4"></rect>
        <rect fill="#E2E8F0" x="60" y="150" width="160" height="30" rx="4"></rect>
        <rect fill="#E2E8F0" x="60" y="200" width="160" height="30" rx="4"></rect>
        <rect fill="#4F46E5" x="60" y="250" width="160" height="40" rx="4"></rect>
        <rect fill="#FFFFFF" x="100" y="265" width="80" height="10" rx="2"></rect>
        
        <!-- Main Content -->
        <rect fill="#F8FAFC" x="260" y="80" width="500" height="380" rx="4"></rect>
        <rect fill="#E2E8F0" x="280" y="100" width="460" height="40" rx="4"></rect>
        <rect fill="#E2E8F0" x="280" y="160" width="460" height="40" rx="4"></rect>
        <rect fill="#E2E8F0" x="280" y="220" width="460" height="40" rx="4"></rect>
        <rect fill="#E2E8F0" x="280" y="280" width="460" height="40" rx="4"></rect>
        <rect fill="#4F46E5" x="600" y="340" width="140" height="40" rx="4"></rect>
        <rect fill="#FFFFFF" x="640" y="355" width="60" height="10" rx="2"></rect>
        
        <!-- Status Bar -->
        <rect fill="#F8FAFC" x="20" y="460" width="760" height="20"></rect>
        <rect fill="#4F46E5" x="30" y="465" width="100" height="10" rx="2"></rect>
        <rect fill="#E2E8F0" x="650" y="465" width="120" height="10" rx="2"></rect>
    </g>
</svg>
