<?xml version="1.0" encoding="UTF-8"?>
<svg width="48px" height="48px" viewBox="0 0 48 48" fill="none" xmlns="http://www.w3.org/2000/svg">
  <path d="M33.5 32.5C32.7 34.1 32.3 34.8 31.2 36.2C29.9 37.9 28.2 40 26 40C24.2 40 23.4 38.9 21 38.9C18.6 38.9 17.8 40 16 40C13.8 40 12.1 37.9 10.8 36.2C8.1 32.6 8 27.6 8 26.9C8 22.1 11.4 19.5 14.8 19.5C16.7 19.5 18.3 20.7 19.5 20.7C20.7 20.7 22.6 19.4 24.8 19.4C25.8 19.4 29.4 19.5 31.7 22.7C31.6 22.8 27.6 25.1 27.6 29.7C27.6 35.1 32.6 36.8 32.8 36.9C32.8 36.9 32.4 38.5 31.2 40C30.3 40 28.7 38.5 27.6 38.5" stroke="#4F46E5" stroke-width="2" stroke-linecap="round" stroke-linejoin="round"/>
  <path d="M24.5 8C25.9 8 28.5 9.2 30 11.4C28.8 13 26.3 14.5 24.5 14.5C23.1 14.5 20.7 13.1 19 11C20.4 9.2 22.9 8 24.5 8Z" stroke="#4F46E5" stroke-width="2" stroke-linecap="round" stroke-linejoin="round"/>
</svg>
